<?xml version="1.0" standalone="no"?>
<svg xmlns:xlink="http://www.w3.org/1999/xlink" id="wave" style="transform:rotate(0deg); transition: 0.3s" viewBox="0 0 1440 340" version="1.1" xmlns="http://www.w3.org/2000/svg"><defs><linearGradient id="sw-gradient-0" x1="0" x2="0" y1="1" y2="0"><stop stop-color="rgba(255, 255, 255, 0.15)" offset="0%"/><stop stop-color="rgba(191.667, 191.667, 191.667, 0.09)" offset="100%"/></linearGradient></defs><path style="transform:translate(0, 0px); opacity:1" fill="url(#sw-gradient-0)" d="M0,68L30,96.3C60,125,120,181,180,221C240,261,300,283,360,249.3C420,215,480,125,540,73.7C600,23,660,11,720,51C780,91,840,181,900,226.7C960,272,1020,272,1080,232.3C1140,193,1200,113,1260,85C1320,57,1380,79,1440,96.3C1500,113,1560,125,1620,119C1680,113,1740,91,1800,119C1860,147,1920,227,1980,255C2040,283,2100,261,2160,249.3C2220,238,2280,238,2340,215.3C2400,193,2460,147,2520,130.3C2580,113,2640,125,2700,141.7C2760,159,2820,181,2880,181.3C2940,181,3000,159,3060,124.7C3120,91,3180,45,3240,22.7C3300,0,3360,0,3420,0C3480,0,3540,0,3600,22.7C3660,45,3720,91,3780,124.7C3840,159,3900,181,3960,164.3C4020,147,4080,91,4140,79.3C4200,68,4260,102,4290,119L4320,136L4320,340L4290,340C4260,340,4200,340,4140,340C4080,340,4020,340,3960,340C3900,340,3840,340,3780,340C3720,340,3660,340,3600,340C3540,340,3480,340,3420,340C3360,340,3300,340,3240,340C3180,340,3120,340,3060,340C3000,340,2940,340,2880,340C2820,340,2760,340,2700,340C2640,340,2580,340,2520,340C2460,340,2400,340,2340,340C2280,340,2220,340,2160,340C2100,340,2040,340,1980,340C1920,340,1860,340,1800,340C1740,340,1680,340,1620,340C1560,340,1500,340,1440,340C1380,340,1320,340,1260,340C1200,340,1140,340,1080,340C1020,340,960,340,900,340C840,340,780,340,720,340C660,340,600,340,540,340C480,340,420,340,360,340C300,340,240,340,180,340C120,340,60,340,30,340L0,340Z"/><defs><linearGradient id="sw-gradient-1" x1="0" x2="0" y1="1" y2="0"><stop stop-color="rgba(255, 255, 255, 0.1)" offset="0%"/><stop stop-color="rgba(159.792, 159.792, 159.792, 0.09)" offset="100%"/></linearGradient></defs><path style="transform:translate(0, 50px); opacity:0.9" fill="url(#sw-gradient-1)" d="M0,170L30,141.7C60,113,120,57,180,56.7C240,57,300,113,360,136C420,159,480,147,540,124.7C600,102,660,68,720,62.3C780,57,840,79,900,73.7C960,68,1020,34,1080,28.3C1140,23,1200,45,1260,96.3C1320,147,1380,227,1440,238C1500,249,1560,193,1620,187C1680,181,1740,227,1800,209.7C1860,193,1920,113,1980,107.7C2040,102,2100,170,2160,164.3C2220,159,2280,79,2340,79.3C2400,79,2460,159,2520,192.7C2580,227,2640,215,2700,209.7C2760,204,2820,204,2880,221C2940,238,3000,272,3060,283.3C3120,295,3180,283,3240,243.7C3300,204,3360,136,3420,119C3480,102,3540,136,3600,136C3660,136,3720,102,3780,102C3840,102,3900,136,3960,141.7C4020,147,4080,125,4140,119C4200,113,4260,125,4290,130.3L4320,136L4320,340L4290,340C4260,340,4200,340,4140,340C4080,340,4020,340,3960,340C3900,340,3840,340,3780,340C3720,340,3660,340,3600,340C3540,340,3480,340,3420,340C3360,340,3300,340,3240,340C3180,340,3120,340,3060,340C3000,340,2940,340,2880,340C2820,340,2760,340,2700,340C2640,340,2580,340,2520,340C2460,340,2400,340,2340,340C2280,340,2220,340,2160,340C2100,340,2040,340,1980,340C1920,340,1860,340,1800,340C1740,340,1680,340,1620,340C1560,340,1500,340,1440,340C1380,340,1320,340,1260,340C1200,340,1140,340,1080,340C1020,340,960,340,900,340C840,340,780,340,720,340C660,340,600,340,540,340C480,340,420,340,360,340C300,340,240,340,180,340C120,340,60,340,30,340L0,340Z"/></svg>