<?xml version="1.0" encoding="utf-8"?>
<!-- Generator: Adobe Illustrator 19.0.0, SVG Export Plug-In . SVG Version: 6.00 Build 0)  -->
<svg version="1.1" id="Layer_1" xmlns="http://www.w3.org/2000/svg" xmlns:xlink="http://www.w3.org/1999/xlink" x="0px" y="0px"
	 viewBox="-293 385 24 24" style="enable-background:new -293 385 24 24;" xml:space="preserve">
<style type="text/css">
	.st0{fill:#8A101C;}
</style>
<title>F339D9A1-6108-45FB-81CB-BB7CE116A062</title>
<desc>Created with sketchtool.</desc>
<g id="Page-1">
	<g id="icon" transform="translate(-426.000000, -194.000000)">
		<g id="_x31_5" transform="translate(393.000000, 178.000000)">
			<g id="rugby" transform="translate(33.000000, 16.000000)">
				<g>
					<path id="Path" class="st0" d="M-292.6,400c0,0.1-0.1,0.3-0.1,0.4c-0.6,3.3-0.3,6.1,0.9,7.3c0.8,0.8,2.4,1.2,4.3,1.2
						c0.9,0,1.9-0.1,3-0.3c0.1,0,0.3-0.1,0.4-0.1L-292.6,400z"/>
					<path id="Path_1_" class="st0" d="M-270.2,386.2c-1.2-1.2-4.1-1.6-7.3-0.9c-0.1,0-0.3,0.1-0.4,0.1l8.6,8.6
						c0-0.1,0.1-0.3,0.1-0.4C-268.7,390.3-269,387.4-270.2,386.2z"/>
					<path id="Shape" class="st0" d="M-279.6,385.8c-2.2,0.7-5.5,2.4-8,4.9c-2.5,2.5-3.9,5.4-4.5,7.7l9.8,9.8c2.2-0.7,5.1-2,7.7-4.5
						c2.5-2.5,4.2-5.8,4.9-8L-279.6,385.8z M-275.4,396.3c-0.1,0.1-0.3,0.2-0.5,0.2c-0.2,0-0.4-0.1-0.5-0.2l-1.5-1.5l-1,1l1.5,1.5
						c0.3,0.3,0.3,0.7,0,1c-0.1,0.1-0.3,0.2-0.5,0.2c-0.2,0-0.4-0.1-0.5-0.2l-1.5-1.5l-1.4,1.4l1.5,1.5c0.3,0.3,0.3,0.7,0,1
						c-0.1,0.1-0.3,0.2-0.5,0.2c-0.2,0-0.4-0.1-0.5-0.2l-1.5-1.5l-1,1l1.5,1.5c0.3,0.3,0.3,0.7,0,1c-0.1,0.1-0.3,0.2-0.5,0.2
						c-0.2,0-0.4-0.1-0.5-0.2l-1.5-1.5l-1.2,1.2c-0.1,0.1-0.3,0.2-0.5,0.2s-0.4-0.1-0.5-0.2c-0.3-0.3-0.3-0.7,0-1l1.2-1.2l-1.5-1.5
						c-0.3-0.3-0.3-0.7,0-1c0.3-0.3,0.7-0.3,1,0l1.5,1.5l1-1l-1.5-1.5c-0.3-0.3-0.3-0.7,0-1c0.3-0.3,0.7-0.3,1,0l1.5,1.5l1.4-1.4
						l-1.5-1.5c-0.3-0.3-0.3-0.7,0-1c0.3-0.3,0.7-0.3,1,0l1.5,1.5l1-1l-1.5-1.5c-0.3-0.3-0.3-0.7,0-1c0.3-0.3,0.7-0.3,1,0l1.5,1.5
						l1.2-1.2c0.3-0.3,0.7-0.3,1,0c0.3,0.3,0.3,0.7,0,1l-1.2,1.2l1.5,1.5C-275.1,395.6-275.1,396-275.4,396.3z"/>
				</g>
			</g>
		</g>
	</g>
</g>
</svg>
