<?xml version="1.0" encoding="utf-8"?>
<!-- Generator: Adobe Illustrator 19.0.0, SVG Export Plug-In . SVG Version: 6.00 Build 0)  -->
<svg version="1.1" id="Layer_1" xmlns="http://www.w3.org/2000/svg" xmlns:xlink="http://www.w3.org/1999/xlink" x="0px" y="0px"
	 viewBox="-293 385 24 24" style="enable-background:new -293 385 24 24;" xml:space="preserve">
<style type="text/css">
	.st0{fill:#C06C84;}
</style>
<title>61A26790-8D8C-4459-B87C-B6603E905ABE</title>
<desc>Created with sketchtool.</desc>
<g id="Page-1">
	<g id="icon" transform="translate(-443.000000, -1538.000000)">
		<g id="_x31_2-copy-28" transform="translate(393.000000, 1522.000000)">
			<g id="Baseball_x2F_white" transform="translate(50.000000, 16.000000)">
				<g id="Path">
					<path class="st0" d="M-270.5,397c-0.9,0-1.9,0.1-2.7,0.4l0.4,0.8c0.2,0.4,0,0.8-0.3,1c-0.1,0.1-0.2,0.1-0.3,0.1
						c-0.3,0-0.5-0.2-0.7-0.4l-0.5-1c-1,0.4-1.9,1-2.7,1.7l0.6,0.6c0.3,0.3,0.3,0.8,0,1.1c-0.1,0.1-0.3,0.2-0.5,0.2
						c-0.2,0-0.4-0.1-0.5-0.2l-0.6-0.6c-0.7,0.8-1.3,1.7-1.7,2.6l1,0.6c0.4,0.2,0.5,0.7,0.3,1c-0.1,0.2-0.4,0.4-0.6,0.4
						c-0.1,0-0.3,0-0.4-0.1l-0.7-0.4c-0.2,0.9-0.4,1.8-0.4,2.8c0,0.5,0,1,0.1,1.5c6.5-0.1,11.8-5.3,11.9-11.9
						C-269.5,397.1-270,397-270.5,397z"/>
					<path class="st0" d="M-279.6,385.1c0.1,0.5,0.1,0.9,0.1,1.4c0,1.4-0.3,2.8-0.7,4.1l1.1,0.5c0.4,0.2,0.5,0.6,0.3,1
						c-0.1,0.3-0.4,0.4-0.7,0.4c-0.1,0-0.2,0-0.3-0.1l-1-0.5c-0.5,0.9-1,1.7-1.7,2.5l0.5,0.5c0.3,0.3,0.3,0.8,0,1.1
						c-0.1,0.1-0.3,0.2-0.5,0.2c-0.2,0-0.4-0.1-0.5-0.2l-0.5-0.5c-0.8,0.7-1.6,1.2-2.5,1.7l0.5,1c0.2,0.4,0,0.8-0.3,1
						c-0.1,0.1-0.2,0.1-0.3,0.1c-0.3,0-0.5-0.2-0.7-0.4l-0.5-1.1c-1.3,0.5-2.6,0.7-4.1,0.7c-0.5,0-1,0-1.4-0.1
						c0.7,5.5,5,9.9,10.5,10.5c-0.1-0.5-0.1-0.9-0.1-1.4c0-1.2,0.2-2.4,0.5-3.6l-0.9-0.5c-0.4-0.2-0.5-0.7-0.3-1
						c0.2-0.4,0.7-0.5,1-0.3l0.7,0.4c0.5-1.1,1.1-2.1,1.9-3l-0.5-0.5c-0.3-0.3-0.3-0.8,0-1.1c0.3-0.3,0.8-0.3,1.1,0l0.5,0.5
						c0.9-0.8,2-1.5,3.1-2l-0.3-0.7c-0.2-0.4,0-0.8,0.3-1c0.4-0.2,0.8,0,1,0.3l0.4,0.8c1.1-0.3,2.2-0.5,3.4-0.5c0.5,0,0.9,0,1.4,0.1
						C-269.7,390.1-274.1,385.7-279.6,385.1z"/>
					<path class="st0" d="M-282.2,389.6l0.6,0.3c0.4-1.1,0.6-2.2,0.6-3.4c0-0.5,0-1-0.1-1.5c-6.5,0.1-11.8,5.3-11.9,11.9
						c0.5,0.1,1,0.1,1.5,0.1c1.2,0,2.3-0.2,3.4-0.6l-0.3-0.6c-0.2-0.4,0-0.8,0.3-1c0.4-0.2,0.8,0,1,0.3l0.3,0.7
						c0.8-0.4,1.5-0.9,2.1-1.4l-0.6-0.6c-0.3-0.3-0.3-0.8,0-1.1c0.3-0.3,0.8-0.3,1.1,0l0.6,0.6c0.6-0.6,1-1.3,1.4-2.1l-0.7-0.3
						c-0.4-0.2-0.5-0.6-0.3-1C-283,389.6-282.5,389.4-282.2,389.6z"/>
				</g>
			</g>
		</g>
	</g>
</g>
</svg>
