<?xml version="1.0" encoding="utf-8"?>
<!-- Generator: Adobe Illustrator 19.0.0, SVG Export Plug-In . SVG Version: 6.00 Build 0)  -->
<svg version="1.1" id="Layer_1" xmlns="http://www.w3.org/2000/svg" xmlns:xlink="http://www.w3.org/1999/xlink" x="0px" y="0px"
	 viewBox="-294 386 23 21" style="enable-background:new -294 386 23 21;" xml:space="preserve">
<style type="text/css">
	.st0{fill:#B4845B;}
</style>
<title>2930101C-8E97-414B-898D-581126DB64E5</title>
<desc>Created with sketchtool.</desc>
<g id="Page-1">
	<g id="icon" transform="translate(-139.000000, -1603.000000)">
		<g id="_x31_2-copy-20" transform="translate(83.000000, 1586.000000)">
			<g id="Politics_x2F_white" transform="translate(56.000000, 17.000000)">
				<g>
					<path id="Fill-1" class="st0" d="M-279.2,395.2c-0.2-1.4-1.4-2.5-2.8-2.5h-2c-1.4,0-2.6,1.1-2.8,2.5l-0.2,1.3h7.8L-279.2,395.2
						z"/>
					<path id="Fill-3" class="st0" d="M-282.9,386.6c1.4,0,2.6,1.2,2.6,2.7c0,1.5-1.2,2.7-2.6,2.7c-1.4,0-2.6-1.2-2.6-2.7
						C-285.5,387.8-284.4,386.6-282.9,386.6"/>
					<path id="Fill-5" class="st0" d="M-291,388.9c0-0.3,0.2-0.5,0.5-0.5c0.3,0,0.5,0.2,0.5,0.5c0,0.3-0.2,0.5-0.5,0.5
						C-290.8,389.4-291,389.2-291,388.9 M-292.2,389.4c-0.3,0-0.5-0.2-0.5-0.5c0-0.3,0.2-0.5,0.5-0.5s0.5,0.2,0.5,0.5
						C-291.7,389.2-291.9,389.4-292.2,389.4 M-288.7,388.4c0.3,0,0.5,0.2,0.5,0.5s-0.2,0.5-0.5,0.5s-0.5-0.2-0.5-0.5
						S-289,388.4-288.7,388.4 M-288.3,393.2c0,0,0.1,0,0.1,0c0.1,0,0.2,0,0.3-0.1c0.1-0.1,0.1-0.3,0-0.4c-0.2-0.5-0.3-1-0.3-1.3h0.5
						c0.4,0,0.8-0.4,0.8-0.8v-3.4c0-0.4-0.4-0.8-0.8-0.8h-5.5c-0.4,0-0.8,0.4-0.8,0.8v3.4c0,0.4,0.4,0.8,0.8,0.8h2.8
						C-290,392-289.3,392.9-288.3,393.2"/>
					<path id="Fill-8" class="st0" d="M-271.6,386.9h-3.9v-0.3c0-0.4-0.3-0.7-0.7-0.7s-0.7,0.3-0.7,0.7v11.1H-291
						c-0.4,0-0.8,0.3-0.8,0.8v4.6c0,0.4,0.3,0.8,0.8,0.8h1.5v2.1c0,0.4,0.3,0.8,0.8,0.8h12.4c0.4,0,0.8-0.3,0.8-0.8v-2.1h1.5
						c0.4,0,0.8-0.3,0.8-0.8v-4.6c0-0.4-0.3-0.8-0.8-0.8h-1.3v-6.4h3.9c0.3,0,0.6-0.3,0.6-0.6v-3.2
						C-271,387.2-271.3,386.9-271.6,386.9"/>
				</g>
			</g>
		</g>
	</g>
</g>
</svg>
