<?xml version="1.0" encoding="utf-8"?>
<!-- Generator: Adobe Illustrator 19.0.0, SVG Export Plug-In . SVG Version: 6.00 Build 0)  -->
<svg version="1.1" id="Layer_1" xmlns="http://www.w3.org/2000/svg" xmlns:xlink="http://www.w3.org/1999/xlink" x="0px" y="0px"
	 viewBox="-293 385 24 24" style="enable-background:new -293 385 24 24;" xml:space="preserve">
<style type="text/css">
	.st0{fill:#69306D;}
</style>
<title>B7405A55-D864-4A96-9F70-5775FA2D033A</title>
<desc>Created with sketchtool.</desc>
<g id="Page-1">
	<g id="icon" transform="translate(-441.000000, -706.000000)">
		<g id="_x32_3" transform="translate(393.000000, 690.000000)">
			<g id="Handball" transform="translate(48.000000, 16.000000)">
				<g id="Path">
					<path class="st0" d="M-289.1,388.1c2-0.2,4.2,0.9,4.8,1.3c0.3-0.2,0.6-0.3,0.9-0.3c0.2-0.8,0.7-2.7,1.9-4.1
						C-284.3,385.1-287,386.2-289.1,388.1z"/>
					<path class="st0" d="M-283,394.9c-0.4,0-0.7-0.1-1-0.2c-0.9,3.3,0,8.8,1.8,12c0.6,1.1,1.4,1.8,2.1,2.2c2.4-0.2,4.7-1.1,6.5-2.5
						c0-7.1-3.2-12-6.5-13.8C-280.4,394-281.5,394.9-283,394.9z"/>
					<path class="st0" d="M-282.4,389.1c0.4,0.1,0.8,0.2,1.2,0.5c3.4-1,7.1-1,9.5-0.3c-2.1-2.5-5.1-4.1-8.5-4.3
						C-281.6,386.1-282.2,388.2-282.4,389.1z"/>
					<path class="st0" d="M-291.4,394.8c1.3-1.6,3.3-2.7,5.6-3.1c0.1-0.7,0.4-1.3,0.9-1.8c-1-0.5-3.4-1.5-5.2-0.7
						c-1.8,2.1-2.9,4.8-2.9,7.8c0,0.2,0,0.5,0,0.7C-292.7,396.7-292.1,395.6-291.4,394.8z"/>
					<path class="st0" d="M-270.8,390.7c-1.7-1.1-5.9-1.4-9.8-0.4c0.3,0.4,0.5,0.9,0.6,1.5c3.5,1.7,7,6.7,7.3,13.9
						c2.3-2.2,3.8-5.3,3.8-8.7C-269,394.7-269.7,392.5-270.8,390.7z"/>
					<path class="st0" d="M-283,394.1c1.2,0,2.1-0.9,2.1-2.1l0,0c0-1.2-0.9-2.1-2.1-2.1l0,0l0,0c-1.2,0-2.1,0.9-2.1,2.1
						C-285,393.2-284.1,394.1-283,394.1z"/>
					<path class="st0" d="M-282.9,407.2c-2-3.5-2.9-9.3-1.8-12.8c-0.6-0.4-1-1.1-1.1-1.8c-2,0.4-3.8,1.4-5,2.8
						c-1.2,1.4-1.8,3.1-1.7,5.1c1.4,4.8,5.9,8.4,11.1,8.6C-281.9,408.5-282.4,407.9-282.9,407.2z"/>
				</g>
			</g>
		</g>
	</g>
</g>
</svg>
