<?xml version="1.0" encoding="utf-8"?>
<!-- Generator: Adobe Illustrator 19.0.0, SVG Export Plug-In . SVG Version: 6.00 Build 0)  -->
<svg version="1.1" id="Layer_1" xmlns="http://www.w3.org/2000/svg" xmlns:xlink="http://www.w3.org/1999/xlink" x="0px" y="0px"
	 viewBox="-294 389 23 16" style="enable-background:new -294 389 23 16;" xml:space="preserve">
<style type="text/css">
	.st0{fill:#D592FF;}
</style>
<title>DC2AFE8F-7B9F-4B55-9163-D7A4C948714E</title>
<desc>Created with sketchtool.</desc>
<g id="Page-1">
	<g id="icon" transform="translate(-115.000000, -1909.000000)">
		<g id="_x2D_55" transform="translate(83.000000, 1889.000000)">
			<g id="Virtual-sports" transform="translate(32.000000, 20.000000)">
				<g>
					<path id="Path" class="st0" d="M-271,391.9v-1.6c0-0.7-0.6-1.4-1.4-1.4h-5.1c-0.7,0-1.3,0.6-1.3,1.4v1.6H-271z"/>
					<path id="Shape" class="st0" d="M-278.9,393.3v10.3c0,0.8,0.6,1.4,1.3,1.4h5.1c0.8,0,1.4-0.6,1.4-1.4v-10.3H-278.9z
						 M-274.8,402c-0.3,0.1-0.7-0.1-0.8-0.5c-0.1-0.3,0.1-0.7,0.4-0.9c0.4-0.1,0.8,0.1,0.9,0.5C-274.2,401.6-274.4,401.9-274.8,402z
						 M-274.8,399.1c-0.3,0.1-0.7-0.1-0.8-0.5c-0.1-0.3,0.1-0.7,0.4-0.9c0.4-0.1,0.8,0.1,0.9,0.5
						C-274.2,398.7-274.4,399-274.8,399.1z"/>
					<path id="Path_1_" class="st0" d="M-281.7,389h-10.9c-0.7,0-1.3,0.6-1.3,1.4v9.3c0,0.8,0.6,1.4,1.3,1.4h10.9
						c0.7,0,1.3-0.6,1.3-1.4v-9.3C-280.4,389.6-281,389-281.7,389z"/>
					<path id="Path_2_" class="st0" d="M-283.6,403.6h-1.5v-1.2h-4.2v1.2h-1.5c-0.4,0-0.7,0.3-0.7,0.7c0,0.4,0.3,0.7,0.7,0.7h7.2
						c0.4,0,0.7-0.3,0.7-0.7C-282.9,403.9-283.2,403.6-283.6,403.6z"/>
				</g>
			</g>
		</g>
	</g>
</g>
</svg>
