<?xml version="1.0" encoding="utf-8"?>
<!-- Generator: Adobe Illustrator 19.0.0, SVG Export Plug-In . SVG Version: 6.00 Build 0)  -->
<svg version="1.1" id="Layer_1" xmlns="http://www.w3.org/2000/svg" xmlns:xlink="http://www.w3.org/1999/xlink" x="0px" y="0px"
	 viewBox="-294 385 22 24" style="enable-background:new -294 385 22 24;" xml:space="preserve">
<style type="text/css">
	.st0{fill:#D95B66;}
</style>
<title>4B1BEDA8-A02D-44EA-871F-0999DD62BFBE</title>
<desc>Created with sketchtool.</desc>
<g id="Page-1">
	<g id="icon" transform="translate(-144.000000, -1538.000000)">
		<g id="_x31_2-copy-19" transform="translate(83.000000, 1522.000000)">
			<g id="sumo_x2F_white" transform="translate(61.000000, 16.000000)">
				<path class="st0" d="M-273.1,399.6c2-6.8-6.1-7.3-6.1-7.3c0.2-0.3,0.1-0.7,0.1-0.7c1.3-1.4,0.2-1.3,0.2-1.3
					c1-2.6-2.1-3.3-2.1-3.3c0.6-1.6-1.4-1.9-1.9-2v0c0,0,0,0-0.1,0c0,0,0,0,0,0v0c-0.5,0.1-2.5,0.4-1.9,2c0,0-3.2,0.8-2.1,3.3
					c0,0-1.1-0.1,0.2,1.3c0,0-0.1,0.4,0.1,0.7c0,0-8.1,0.5-6.1,7.3c0,0-1.8,1.5-0.4,2.3c0,0-0.6,2.8,3.4,5.6c0,0-1.8,1.4-0.2,1.4
					h1.4c0,0,1.5,0.2,0.1-2.1c-0.1-0.2-0.2-0.3-0.3-0.4c-0.1-0.2-0.1-0.6-0.1-1c0,0,1.4,1.2,4.7,0.7l0.1,0.3l1.1,0v0l0,0l0.1,0v0
					l1.1,0l0.1-0.3c3.3,0.5,4.7-0.7,4.7-0.7c0.1,0.4,0,0.8-0.1,1c-0.1,0.1-0.2,0.3-0.3,0.4c-1.3,2.3,0.1,2.1,0.1,2.1h1.4
					c1.6-0.1-0.1-1.4-0.1-1.4c3.9-2.9,3.4-5.6,3.4-5.6C-271.3,401.1-273.1,399.6-273.1,399.6z M-291.7,400.5
					c1.1-2.1,0.9-3.1,0.9-3.1c0.5,0.4,1.4-0.1,1.4-0.1c-0.3,0.6,0.1,1.4,0.1,1.4c-0.7,0.7-0.4,2.1-0.4,2.1
					C-290.1,400.4-291.7,400.5-291.7,400.5z M-282.7,405.5c0,0-5.8,0.2-6.9-4.7c0,0,2,3.3,7.1,3.1c5-0.3,5.9-3.2,5.9-3.2
					S-276,404.8-282.7,405.5z M-276.5,400.8c0,0,0.3-1.3-0.4-2.1c0,0,0.4-0.8,0.1-1.4c0,0,0.9,0.4,1.4,0.1c0,0-0.2,1,0.9,3.1
					C-274.5,400.5-276.1,400.4-276.5,400.8z"/>
			</g>
		</g>
	</g>
</g>
</svg>
