<?xml version="1.0" encoding="utf-8"?>
<!-- Generator: Adobe Illustrator 19.0.0, SVG Export Plug-In . SVG Version: 6.00 Build 0)  -->
<svg version="1.1" id="Layer_1" xmlns="http://www.w3.org/2000/svg" xmlns:xlink="http://www.w3.org/1999/xlink" x="0px" y="0px"
	 viewBox="-295 385 21 24" style="enable-background:new -295 385 21 24;" xml:space="preserve">
<style type="text/css">
	.st0{fill:#D96C0D;}
</style>
<title>124B53F0-E517-4303-9554-0E3D171E8095</title>
<desc>Created with sketchtool.</desc>
<g id="Page-1">
	<g id="icon" transform="translate(-134.000000, -1282.000000)">
		<g id="_x31_2-copy-15" transform="translate(83.000000, 1266.000000)">
			<g id="Athletics_x2F_white" transform="translate(51.000000, 16.000000)">
				<g id="Path">
					<path class="st0" d="M-274,408C-274.1,408-274.1,408-274,408c-0.2,0.1-0.3,0.2-0.5,0.3c-0.4,0.1-0.6,0.2-1,0.2
						c-0.2,0-0.4,0-0.7,0c-0.1,0-0.2,0-0.4,0c-0.8,0-1.7,0.2-1.7,0.2l0,0c0,0.1-0.1,0.4,0.5,0.4c0.6-0.1,0.8-0.2,1.5-0.2
						c0,0,0.8,0.1,1.3,0C-274.6,408.6-274.2,408.4-274,408C-274,408-274,407.9-274,408z"/>
					<path class="st0" d="M-293.9,406.4c-0.3-0.5-0.3-0.8-0.3-1.7c0-0.9-0.3-2-0.3-2l0,0c0,0,0,0,0,0c0,0-0.6-0.1-0.4,0.5
						c0.1,0.6,0.4,0.8,0.5,1.4c0,0.3,0,0.8,0.1,1.3c0.2,0.4,0.3,0.9,0.8,1c0,0,0,0,0,0C-293.7,406.8-293.8,406.6-293.9,406.4z"/>
					<path class="st0" d="M-274.2,407.6c-0.1,0-0.2,0-0.6,0c-0.1,0-0.3,0-0.6,0c0,0-0.7-0.1-1.1-0.4c-0.1-0.1-0.1-0.2-0.2-0.2
						c0,0,0,0-0.1,0c0,0,0,0,0,0c0,0,0,0,0,0.1c0,0.1,0,0.2,0,0.2c0,0,0,0.1,0,0.1c-0.1-0.6-0.5-3.8-0.4-5.5c0,0,0-1-0.4-1.4
						c0,0-0.6-0.8-2.6-1.9l-1.1,1.9c0.6,0.4,1.3,0.8,2.2,1.2c-0.1,0.1-0.2,1.5,0.2,2.3c0.5,0.9,0.6,2.5,0.7,3.4c0,0,0,0,0,0.1
						c0,0,0,0,0-0.1c-0.1-0.1-0.1-0.1-0.2-0.1c-0.1,0-0.1,0.1-0.1,0.2c0,0.2-0.1,0.8-0.1,1.1c0,0,0.9-0.2,1.8-0.2c0.1,0,0.3,0,0.4,0
						c0.3,0,0.5,0,0.7,0c0.4,0,0.6-0.1,0.9-0.2c0.2-0.1,0.3-0.1,0.4-0.2C-274,407.8-274,407.7-274.2,407.6z"/>
					<path class="st0" d="M-287.3,401.7c0,0-1.7-0.3-3.2,0.4c-1.2,0.6-2.3,0.7-2.9,0.8c0,0,0,0,0,0c0.1-0.2,0.1-0.2-0.1-0.2l0,0
						c-0.2,0-0.7,0-1.1,0c0,0,0.3,1.1,0.3,2c0,0.9,0.1,1.2,0.3,1.7c0.2,0.3,0.3,0.5,0.4,0.5c0.1,0,0.1,0,0.2-0.1
						c0,0,0.1-0.2-0.1-1.1c0,0,0.2-0.6,0.3-1.1c0.1-0.2,0.1-0.2,0.2-0.2c0,0,0-0.1,0-0.1c0,0,0,0-0.1,0c-0.1,0-0.2,0-0.2,0
						c0,0,0,0,0,0c0.7-0.2,2.3-0.5,3.5-0.5c1.6,0,1.7-0.1,2.1,0c0.4,0.1,0.8,0.1,1.2-0.2c0.2-0.2,1.1-1.1,2.1-2.4l-1.8-1.4
						C-286.5,400.2-287,401-287.3,401.7z"/>
					<path class="st0" d="M-280.2,398.4l0.1-0.2c0,0-0.6-0.7-1.2-1.1c0,0-0.1-0.3-0.2-0.4c-0.1-0.2-0.1-0.5-0.1-0.5
						c0.1-0.7,0.5-2.2,0.9-3.4c0.3,0.4,0.7,0.6,0.8,0.7l0,0c0.2,0.2,0.6,0,1.7-0.3c1-0.3,1.7-0.6,2-0.9c0.2-0.1,0.4-0.3,0.6-0.4
						c0.1-0.1,0.3-0.1,0.3-0.1c0.4,0,0.9-0.4,0.9-0.6c0-0.1-0.1-0.1-0.1-0.1c0.2-0.1,0-0.3-0.1-0.3c0.2-0.2-0.2-0.3-0.2-0.3
						c0.1-0.1-0.1-0.3-0.3-0.2c0,0-0.1,0-0.1,0s-0.1-0.1-0.3,0c-0.1,0.1-0.4,0.2-0.4,0.4c0,0.1,0,0.2-0.1,0.4
						c-0.4,0.4-1.1,0.4-1.8,0.5c-0.8,0.1-1.5,0.3-1.6,0.3c-0.5-0.8-1.2-1.3-1.4-1.4c-0.1-0.1-0.1-0.2-0.2-0.3
						c-0.2-0.2-0.2-0.4-0.2-0.4c0.2-0.3,0.3-0.8,0.3-0.8s0.2,0,0.4,0c0.1,0,0.2,0,0.3-0.1c0,0,0-0.1,0-0.1c0,0,0-0.1,0-0.2
						c0,0,0-0.1,0-0.1c0,0,0-0.1,0-0.1c0-0.3,0.1-0.4,0.1-0.4s0,0,0.1,0c0,0,0.1,0,0.2-0.1c0.1-0.1-0.4-1-0.4-1c0,0,0-0.1,0-0.1
						c0-0.1,0.1-0.2,0.1-0.2c0,0,0-0.1,0-0.1c0-0.5-0.1-0.6-0.1-0.6l0.2,0c-0.2-0.4-0.4-0.8-1.3-0.9c-0.9-0.1-1.4,0.4-1.4,0.4
						c-0.3,0.2-0.8,0.6-0.8,0.6l0.2,0.1c-0.4,0.2-0.6,0.9-0.6,0.9l0.2,0c0,0,0,0.1-0.1,0.2c0,0.1-0.1,0.1-0.1,0.1s0.1,0.1,0.2,0.1
						c0.1,0,0.2,0,0.2,0s-0.1,0.1-0.1,0.1c-0.1,0.1-0.1,0.1-0.1,0.1s0.1,0,0.2,0.1c0.1,0,0.2,0,0.2,0l-0.3,0.2c0,0,0.1,0.1,0.1,0.1
						c0.1,0,0.2,0.1,0.2,0.1s0,0-0.1,0.1c0,0-0.1,0.1-0.1,0.1c0.3,0.6,0.9,0.7,0.9,0.7l-0.2,0.4c-0.6,0.2-1,0.5-1.3,0.7
						c-2.2,0.7-3.1,1.7-3.3,1.9c-0.3,0.1-0.3,0.6-0.6,1.6c-0.2,0.8-0.2,1.7-0.3,2.2c0,0,0,0,0,0c0,0,0,0,0,0c0,0.1,0,0.2,0,0.2
						c0,0.2-0.1,0.3-0.1,0.3c-0.2,0.4-0.1,1.1,0,1.2c0.1,0.1,0.2,0,0.2,0c0,0.2,0.3,0.2,0.3,0.1c0,0.2,0.3,0.2,0.4,0.1
						c0.1,0.2,0.4,0,0.4-0.1c0-0.1,0.1-0.1,0.2-0.2c0-0.1,0.1-0.5-0.1-0.7c-0.1-0.1-0.2-0.2-0.3-0.3c0-0.4,0.1-0.8,0.4-1.5
						c0.4-0.8,0.7-1.9,0.7-1.9c0.6-0.2,1-0.5,1.4-0.7c0.1,0.7,0.1,0.7,0.4,1.7c0.2,0.8,0,1.6-0.4,2.4c-0.2,0.4-0.5,1-0.6,1.8
						l-0.8,1.2l2.4,1.9c0.2-0.2,0.9-1,1.1-1.4c0,0,0.8,0.6,1.4,1L-280.2,398.4C-280.2,398.4-280.2,398.4-280.2,398.4z"/>
				</g>
			</g>
		</g>
	</g>
</g>
</svg>
