<?xml version="1.0" encoding="utf-8"?>
<!-- Generator: Adobe Illustrator 19.0.0, SVG Export Plug-In . SVG Version: 6.00 Build 0)  -->
<svg version="1.1" id="Layer_1" xmlns="http://www.w3.org/2000/svg" xmlns:xlink="http://www.w3.org/1999/xlink" x="0px" y="0px"
	 viewBox="-293 385 24 24" style="enable-background:new -293 385 24 24;" xml:space="preserve">
<style type="text/css">
	.st0{fill:#F18521;}
</style>
<title>81884FA3-8FC0-450A-8C81-7B9562B27FD5</title>
<desc>Created with sketchtool.</desc>
<g id="Page-1">
	<g id="icon" transform="translate(-450.000000, -450.000000)">
		<g id="_x31_9" transform="translate(393.000000, 434.000000)">
			<g id="tennis_x2F_white" transform="translate(57.000000, 16.000000)">
				<g id="tennis">
					<path id="Path" class="st0" d="M-272.5,388.5c-2.4-2.4-5.6-3.6-8.8-3.5l4.9,4.9l0,0c3.2,3.2,3.2,8.5,0,11.7
						c-3.2,3.2-8.5,3.2-11.7,0v0l-4.9-4.9c-0.1,3.2,1.1,6.4,3.5,8.8c4.7,4.7,12.3,4.7,17,0C-267.8,400.8-267.8,393.2-272.5,388.5z"
						/>
					<path id="Path_1_" class="st0" d="M-286.8,400.3c1.2,1.2,2.8,1.9,4.5,1.9c1.7,0,3.3-0.7,4.5-1.9c1.2-1.2,1.9-2.8,1.9-4.5
						c0-1.7-0.7-3.3-1.9-4.5l-0.1-0.1l-5.8-5.8c-2.2,0.5-4.2,1.6-5.9,3.2c-1.7,1.7-2.8,3.7-3.2,5.9L-286.8,400.3L-286.8,400.3z"/>
				</g>
			</g>
		</g>
	</g>
</g>
</svg>
