<?xml version="1.0" encoding="utf-8"?>
<!-- Generator: Adobe Illustrator 19.0.0, SVG Export Plug-In . SVG Version: 6.00 Build 0)  -->
<svg version="1.1" id="Layer_1" xmlns="http://www.w3.org/2000/svg" xmlns:xlink="http://www.w3.org/1999/xlink" x="0px" y="0px"
	 viewBox="-293 389 24 15" style="enable-background:new -293 389 24 15;" xml:space="preserve">
<style type="text/css">
	.st0{fill:#60A5DA;}
</style>
<title>873723E5-3C3A-46D7-88CD-0CD54F3628AE</title>
<desc>Created with sketchtool.</desc>
<g id="Page-1">
	<g id="icon" transform="translate(-138.000000, -327.000000)">
		<g id="_x35_" transform="translate(83.000000, 306.000000)">
			<g id="bike" transform="translate(55.000000, 21.000000)">
				<g id="Shape">
					<path class="st0" d="M-273.9,394.2c-0.6,0-1.2,0.1-1.8,0.3c-0.4-1-0.8-2-1-2.9c-0.3-1.5-1.6-2.6-3.2-2.6
						c-0.4,0-0.7,0.3-0.7,0.7s0.3,0.7,0.7,0.7c0.2,0,0.3,0,0.5,0.1c0.5,0.1,0.9,0.5,1.1,0.9c0,0,0,0-0.1,0.1l-0.2,0.4l-1.1,1.9h-5.9
						l-0.3-0.8h0.1c0.4,0,0.7-0.3,0.7-0.7s-0.3-0.7-0.7-0.7h-2.4c-0.4,0-0.7,0.3-0.7,0.7s0.3,0.7,0.7,0.7h0.8l0.6,1.5
						c-0.4-0.1-0.9-0.2-1.4-0.2c-2.7,0-4.9,2.2-4.9,4.9s2.2,4.9,4.9,4.9c2.5,0,4.5-1.8,4.8-4.2h1.3c0.2,0,0.5-0.1,0.6-0.3l3.7-6.2
						c0.2,0.7,0.5,1.3,0.8,2c-1.2,0.9-1.9,2.3-1.9,3.9c0,2.7,2.2,4.9,4.9,4.9c2.7,0,4.9-2.2,4.9-4.9
						C-269,396.4-271.2,394.2-273.9,394.2z M-288.1,399.8h3.4c-0.3,1.6-1.7,2.8-3.4,2.8c-1.9,0-3.5-1.6-3.5-3.5s1.6-3.5,3.5-3.5
						c1.7,0,3.1,1.2,3.4,2.8h-3.4c-0.4,0-0.7,0.3-0.7,0.7S-288.5,399.8-288.1,399.8z M-282.4,398.4h-0.9c-0.2-1.1-0.7-2.1-1.5-2.9
						c0,0,0-0.1,0-0.1l-0.1-0.3h4.5L-282.4,398.4z M-273.9,402.6c-1.9,0-3.5-1.6-3.5-3.5c0-1,0.4-1.9,1.1-2.6c0.9,1.7,1.7,2.9,1.8,3
						c0.1,0.2,0.4,0.3,0.6,0.3c0.1,0,0.3,0,0.4-0.1c0.3-0.2,0.4-0.7,0.2-1c0,0-0.9-1.3-1.7-2.9c0.4-0.1,0.7-0.2,1.1-0.2
						c1.9,0,3.5,1.6,3.5,3.5S-272,402.6-273.9,402.6z"/>
				</g>
			</g>
		</g>
	</g>
</g>
</svg>
