<?xml version="1.0" encoding="utf-8"?>
<!-- Generator: Adobe Illustrator 19.0.0, SVG Export Plug-In . SVG Version: 6.00 Build 0)  -->
<svg version="1.1" id="Layer_1" xmlns="http://www.w3.org/2000/svg" xmlns:xlink="http://www.w3.org/1999/xlink" x="0px" y="0px"
	 viewBox="-293 385 24 24" style="enable-background:new -293 385 24 24;" xml:space="preserve">
<style type="text/css">
	.st0{fill:#3C7A57;}
</style>
<title>9CE549A9-00BF-40E6-BCDA-5BCF2814C1EC</title>
<desc>Created with sketchtool.</desc>
<g id="Page-1">
	<g id="icon" transform="translate(-123.000000, -1154.000000)">
		<g id="_x31_2-copy-6" transform="translate(83.000000, 1138.000000)">
			<g id="badminton_x2F_white" transform="translate(40.000000, 16.000000)">
				<g id="Path">
					<path class="st0" d="M-269.6,395.8l-3.5-0.8l-10.5,8l-1.1-1.1l10.7-8.2l-0.3-2.8c0-0.3-0.3-0.6-0.7-0.7l-3-0.3l-8.1,10.7
						l-1.1-1.1l8.1-10.8l-0.3-3.1c0-0.2-0.1-0.4-0.3-0.5c-0.2-0.1-0.4-0.2-0.6-0.1l-4.2,0.8c-0.3,0-0.5,0.2-0.6,0.5l-4.2,12.5
						l-1.2,1.2l6.4,6.4l1.2-1.2l12.5-4.2c0.3-0.1,0.4-0.3,0.5-0.6l0.8-3.7C-268.9,396.3-269.2,395.9-269.6,395.8z"/>
					<path class="st0" d="M-291.5,401.1l-0.2,0.2c-1.8,1.8-1.8,4.6,0,6.4c0.8,0.9,2,1.3,3.2,1.3c1.2,0,2.3-0.5,3.2-1.3l0.2-0.2
						L-291.5,401.1z"/>
				</g>
			</g>
		</g>
	</g>
</g>
</svg>
