<?xml version="1.0" encoding="utf-8"?>
<!-- Generator: Adobe Illustrator 19.0.0, SVG Export Plug-In . SVG Version: 6.00 Build 0)  -->
<svg version="1.1" id="Layer_1" xmlns="http://www.w3.org/2000/svg" xmlns:xlink="http://www.w3.org/1999/xlink" x="0px" y="0px"
	 viewBox="-293 385 24 24" style="enable-background:new -293 385 24 24;" xml:space="preserve">
<style type="text/css">
	.st0{fill:#074A60;}
</style>
<title>01A6699D-937B-4686-A773-D1C5991F5D49</title>
<desc>Created with sketchtool.</desc>
<g id="Page-1">
	<g id="icon" transform="translate(-439.000000, -514.000000)">
		<g id="_x32_0" transform="translate(393.000000, 498.000000)">
			<g id="Volleyball" transform="translate(46.000000, 16.000000)">
				<g id="Path">
					<path class="st0" d="M-280.4,397.5c-0.4,5.6-3.4,8.9-5.5,10.5c1,0.4,2,0.8,3.1,0.9l0.5-0.4c2.7-2.2,6.1-6.2,6.8-12.4
						C-277,396.2-278.6,396.6-280.4,397.5z"/>
					<path class="st0" d="M-269.5,393.7l-0.6-0.4c-2.2-1.3-7.8-4-14.7-1.1c0.9,1.4,2.1,2.7,3.9,3.9c5-2.4,9.4-1.5,11.9-0.5
						C-269.2,394.9-269.3,394.3-269.5,393.7z"/>
					<path class="st0" d="M-281,385c-2.1,0-4.1,0.5-5.8,1.5l0,0.1c0.1,1.3,0.5,2.8,1.2,4.3c6.6-2.8,12.3-0.9,15.2,0.6
						C-272.4,387.6-276.4,385-281,385z"/>
					<path class="st0" d="M-288.2,387.4c-1,0.7-1.8,1.6-2.5,2.6l0.1,0.4c0.5,3.5,2.3,8.5,7.2,12.4c0.8-1.5,1.4-3.3,1.6-5.6
						C-286.2,394.4-287.7,390.4-288.2,387.4z"/>
					<path class="st0" d="M-291.9,392c-0.7,1.5-1.1,3.2-1.1,5c0,4.3,2.3,8.1,5.6,10.2l0.1-0.1c0.8-0.6,1.9-1.6,2.9-3
						C-289.1,400.3-291.1,395.7-291.9,392z"/>
					<path class="st0" d="M-269.2,397.2c-1.3-0.6-2.9-1-4.7-1.1c-0.7,6.3-3.8,10.4-6.6,13c6.3-0.2,11.4-5.4,11.5-11.7L-269.2,397.2z
						"/>
				</g>
			</g>
		</g>
	</g>
</g>
</svg>
