<?xml version="1.0" encoding="utf-8"?>
<!-- Generator: Adobe Illustrator 19.0.0, SVG Export Plug-In . SVG Version: 6.00 Build 0)  -->
<svg version="1.1" id="Layer_1" xmlns="http://www.w3.org/2000/svg" xmlns:xlink="http://www.w3.org/1999/xlink" x="0px" y="0px"
	 viewBox="-293 385 24 24" style="enable-background:new -293 385 24 24;" xml:space="preserve">
<style type="text/css">
	.st0{fill:#2F7ED5;}
</style>
<title>13E098C2-A7A5-4DE8-B2AD-674148F61472</title>
<desc>Created with sketchtool.</desc>
<g id="Page-1">
	<g id="icon" transform="translate(-124.000000, -770.000000)">
		<g id="_x31_2" transform="translate(83.000000, 754.000000)">
			<g id="hockey" transform="translate(41.000000, 16.000000)">
				<g id="Path">
					<path class="st0" d="M-269.4,386.6l-3-1.5c-0.2-0.1-0.4-0.1-0.5,0c-0.2,0.1-0.3,0.2-0.4,0.4l-8.1,16.2h-7.9c0,0,0,0,0,0
						c-2,0-3.7,1.6-3.7,3.7c0,2,1.7,3.7,3.7,3.7h9c0.3,0,0.5-0.2,0.6-0.4l10.5-21.1C-268.9,387.2-269,386.8-269.4,386.6
						L-269.4,386.6z"/>
					<path class="st0" d="M-286.4,397c2.9,0,5.2-1.2,5.2-3v-1c-0.3,0.2-0.5,0.4-0.9,0.6c-1.2,0.6-2.7,1-4.4,1c-1.6,0-3.2-0.4-4.4-1
						c-0.3-0.2-0.6-0.4-0.9-0.6v1C-291.6,395.7-289.2,397-286.4,397L-286.4,397z"/>
					<path class="st0" d="M-286.4,393.2c2.9,0,5.2-1.2,5.2-3c0-1.7-2.4-3-5.2-3c-2.9,0-5.2,1.2-5.2,3
						C-291.6,392-289.2,393.2-286.4,393.2z"/>
				</g>
			</g>
		</g>
	</g>
</g>
</svg>
