<?xml version="1.0" encoding="utf-8"?>
<!-- Generator: Adobe Illustrator 19.0.0, SVG Export Plug-In . SVG Version: 6.00 Build 0)  -->
<svg version="1.1" id="Layer_1" xmlns="http://www.w3.org/2000/svg" xmlns:xlink="http://www.w3.org/1999/xlink" x="0px" y="0px"
	 viewBox="-296 385 18 24" style="enable-background:new -296 385 18 24;" xml:space="preserve">
<style type="text/css">
	.st0{fill:#0E345E;}
</style>
<title>6D597FCD-76DE-4646-ACAB-B4BAA64E2A44</title>
<desc>Created with sketchtool.</desc>
<g id="Page-1">
	<g id="icon" transform="translate(-145.000000, -1026.000000)">
		<g id="_x31_2-copy-4" transform="translate(83.000000, 1010.000000)">
			<g id="chess_x2F_white" transform="translate(62.000000, 16.000000)">
				<g id="Path">
					<path class="st0" d="M-278.4,392.6c-2-1.6-4-3.1-6-4.7c-0.9-0.7-1.3-1.5-1.1-2.6c0-0.3-0.1-0.4-0.4-0.3
						c-0.7,0.2-1.3,0.6-1.6,1.2c-0.4,0.9-1.2,1.2-2.1,1.2c-1.3-0.1-2.2,0.7-2.9,1.7c-0.8,1.1-1.2,2.4-1.5,3.6
						c-0.3,1.4-0.5,2.7-0.5,4.1c-0.1,1.1,0,2.1-0.1,3.1c0,0.1,0,0.1,0,0.1v2.8h13.2v-2.1c0,0,0.1-0.9-0.6-1.5
						c-0.7-0.7-1.4-1.3-1.4-1.3c-0.3-0.3-0.6-0.6-0.9-0.9l-2.4-3.1c0.2,0.1,0.3,0.2,0.5,0.4c0.7,0.6,1.6,0.8,2.5,0.6
						c0.5-0.1,1.1-0.1,1.6,0.2c0.3,0.2,0.6,0.3,0.9,0.5c0.7,0.4,1.5,0.2,2-0.4c0.3-0.4,0.6-0.7,0.9-1.1
						C-277.9,393.7-277.9,393-278.4,392.6z"/>
					<path class="st0" d="M-279.6,407.9l-1.5-3c-0.1-0.3-0.4-0.4-0.7-0.4h-12c-0.3,0-0.5,0.2-0.7,0.4l-1.5,3c-0.1,0.2-0.1,0.5,0,0.7
						c0.1,0.2,0.4,0.4,0.6,0.4h15c0.3,0,0.5-0.1,0.6-0.4C-279.5,408.4-279.5,408.1-279.6,407.9z"/>
				</g>
			</g>
		</g>
	</g>
</g>
</svg>
