<?xml version="1.0" encoding="utf-8"?>
<!-- Generator: Adobe Illustrator 19.0.0, SVG Export Plug-In . SVG Version: 6.00 Build 0)  -->
<svg version="1.1" id="Layer_1" xmlns="http://www.w3.org/2000/svg" xmlns:xlink="http://www.w3.org/1999/xlink" x="0px" y="0px"
	 viewBox="-293 389 24 16" style="enable-background:new -293 389 24 16;" xml:space="preserve">
<style type="text/css">
	.st0{fill:#9FBE3C;}
</style>
<title>6D2762C8-B931-4A3F-891C-12DF52A516BB</title>
<desc>Created with sketchtool.</desc>
<g id="Page-1">
	<g id="icon" transform="translate(-132.000000, -966.000000)">
		<g id="_x31_2-copy-3" transform="translate(83.000000, 946.000000)">
			<g id="Speedway_x2F_white" transform="translate(49.000000, 20.000000)">
				<g>
					<path id="Shape" class="st0" d="M-273.7,397.3c1.7,0,3,1.4,3,3s-1.4,3-3,3s-3-1.4-3-3C-276.7,398.6-275.4,397.3-273.7,397.3
						 M-273.7,396.1c-2.3,0-4.2,1.9-4.2,4.2c0,2.3,1.9,4.2,4.2,4.2c2.3,0,4.2-1.9,4.2-4.2C-269.5,398-271.4,396.1-273.7,396.1
						L-273.7,396.1z"/>
					<path id="Shape_1_" class="st0" d="M-288.3,397.3c1.7,0,3,1.4,3,3s-1.4,3-3,3s-3-1.4-3-3S-289.9,397.3-288.3,397.3
						 M-288.3,396.1c-2.3,0-4.2,1.9-4.2,4.2c0,2.3,1.9,4.2,4.2,4.2c2.3,0,4.2-1.9,4.2-4.2C-284.1,398-286,396.1-288.3,396.1
						L-288.3,396.1z"/>
					<polygon id="Path" class="st0" points="-279.7,401 -288.3,401 -288.3,399.7 -282.4,399.7 -285.5,396.5 -284.8,395.8 
						-291.8,395.8 -290.1,393.6 -280,393.6 -276.9,391.8 -274.6,394.2 					"/>
					<polygon id="Path_1_" class="st0" points="-274.1,400.4 -275,394.4 -279.5,390.4 -281.3,390.9 -281.6,390.2 -279.3,389.5 
						-274.2,394 -273.3,400.3 					"/>
					<path id="Path_2_" class="st0" d="M-274.7,394.5c-0.4,0.1-0.9-0.6-1-1.5c-0.1-0.9,0.1-1.7,0.5-1.7c0.4-0.1,0.9,0.6,1,1.5
						S-274.3,394.5-274.7,394.5z"/>
				</g>
			</g>
		</g>
	</g>
</g>
</svg>
