<?xml version="1.0" encoding="utf-8"?>
<!-- Generator: Adobe Illustrator 19.0.0, SVG Export Plug-In . SVG Version: 6.00 Build 0)  -->
<svg version="1.1" id="Layer_1" xmlns="http://www.w3.org/2000/svg" xmlns:xlink="http://www.w3.org/1999/xlink" x="0px" y="0px"
	 viewBox="-293 385 24 24" style="enable-background:new -293 385 24 24;" xml:space="preserve">
<style type="text/css">
	.st0{fill:#20327B;}
</style>
<title>1F4761D1-933E-4A91-9D5C-CD5596F22086</title>
<desc>Created with sketchtool.</desc>
<g id="Page-1">
	<g id="icon" transform="translate(-139.000000, -258.000000)">
		<g id="_x34_" transform="translate(83.000000, 242.000000)">
			<g id="Cricket" transform="translate(56.000000, 16.000000)">
				<g id="Path">
					<path class="st0" d="M-285.2,392.7c-0.8,0.8-1.9,1.3-3.1,1.3c-0.6,0-1.3-0.1-1.9-0.4l5.8-5.7
						C-283.5,389.5-283.9,391.5-285.2,392.7L-285.2,392.7z"/>
					<path class="st0" d="M-284.7,387.2l-6.1,6c-0.4-0.3-0.7-0.6-1-1l6.1-6c0.2,0.1,0.4,0.3,0.5,0.4
						C-285,386.9-284.8,387-284.7,387.2L-284.7,387.2z"/>
					<path class="st0" d="M-286.4,385.9l-5.8,5.7c-0.6-1.3-0.5-2.9,0.3-4.1c0.8-1.2,2.2-2,3.7-2C-287.6,385.5-287,385.6-286.4,385.9
						z"/>
					<polygon class="st0" points="-284.3,401.3 -282.7,402.8 -269.1,389.2 -273.4,385 -287.1,398.6 -285.5,400.1 -291.4,406 
						-291.9,405.5 -293,406.7 -290.9,408.7 -289.7,407.6 -290.2,407.2 					"/>
				</g>
			</g>
		</g>
	</g>
</g>
</svg>
