<?xml version="1.0" encoding="utf-8"?>
<!-- Generator: Adobe Illustrator 19.0.0, SVG Export Plug-In . SVG Version: 6.00 Build 0)  -->
<svg version="1.1" id="Layer_1" xmlns="http://www.w3.org/2000/svg" xmlns:xlink="http://www.w3.org/1999/xlink" x="0px" y="0px"
	 viewBox="-293 385 24 24" style="enable-background:new -293 385 24 24;" xml:space="preserve">
<style type="text/css">
	.st0{fill:#015900;}
</style>
<title>3C4F6891-D6C0-4C52-9722-12E222D43B3D</title>
<desc>Created with sketchtool.</desc>
<g id="Page-1">
	<g id="icon" transform="translate(-149.000000, -578.000000)">
		<g id="_x39_" transform="translate(83.000000, 562.000000)">
			<g id="golf" transform="translate(66.000000, 16.000000)">
				<path class="st0" d="M-281,402.6c-2.3,0-4.4,0.2-6.3,0.5v-13.4l8-2.2l-8-2.5h-0.9v18.2c-2.9,0.6-4.9,1.5-4.9,2.6
					c0,1.8,5.4,3.2,12,3.2s12-1.4,12-3.2C-269,404-274.4,402.6-281,402.6z M-285.9,406.8c-1,0-1.8-0.5-1.8-1c0-0.6,0.8-1,1.8-1
					s1.8,0.5,1.8,1C-284,406.4-284.8,406.8-285.9,406.8z"/>
			</g>
		</g>
	</g>
</g>
</svg>
