<?xml version="1.0" encoding="utf-8"?>
<!-- Generator: Adobe Illustrator 19.0.0, SVG Export Plug-In . SVG Version: 6.00 Build 0)  -->
<svg version="1.1" id="Layer_1" xmlns="http://www.w3.org/2000/svg" xmlns:xlink="http://www.w3.org/1999/xlink" x="0px" y="0px"
	 viewBox="-293 385 24 24" style="enable-background:new -293 385 24 24;" xml:space="preserve">
<style type="text/css">
	.st0{fill:#E44E23;}
</style>
<title>40AA871E-6325-4537-91B0-0E9FA37F739B</title>
<desc>Created with sketchtool.</desc>
<g id="Page-1">
	<g id="icon" transform="translate(-116.000000, -194.000000)">
		<g id="_x33_" transform="translate(83.000000, 178.000000)">
			<g id="boxing" transform="translate(33.000000, 16.000000)">
				<g id="Path">
					<path class="st0" d="M-288.3,406.1v2.2c0,0.4,0.3,0.7,0.7,0.7h9.4c0.4,0,0.7-0.3,0.7-0.7v-2.2H-288.3z"/>
					<path class="st0" d="M-274.4,385h-5.6c-1.4,0-2.7,0.6-3.7,1.5h3.7c3.8,0,6.8,3,6.8,6.8v0.7c0,0.2,0,0.4,0,0.7h0.7
						c1.9,0,3.5-1.6,3.5-3.5v-0.7C-269,387.4-271.4,385-274.4,385z"/>
					<path class="st0" d="M-284.1,393.5c1.8,0,3.3,1.5,3.3,3.3c0,0.2,0,0.5-0.1,0.7h2.7c1.9,0,3.5-1.6,3.5-3.5v-0.7
						c0-3-2.4-5.4-5.4-5.4h-5.6c-3,0-5.4,2.4-5.4,5.4v0.7c0.7-0.3,1.4-0.5,2.2-0.5h0.1H-284.1z"/>
					<path class="st0" d="M-282.9,402.4c-0.8,0-1.4,0.6-1.4,1.4v0.9h2.8v-0.9C-281.5,403-282.1,402.4-282.9,402.4z"/>
					<path class="st0" d="M-272.5,396h-0.7v1.8c0,1.4-0.2,2.7-0.6,4h1.3h1.4c1.4-2,2.1-4.4,2.1-6.9v-0.4
						C-269.9,395.4-271.1,396-272.5,396z"/>
					<path class="st0" d="M-272.5,403.3h-1.8c-0.3,0.8-0.7,1.5-1.2,2.2l-0.4,0.6h3.5c0.4,0,0.7-0.3,0.7-0.7v-2.2H-272.5z"/>
					<path class="st0" d="M-278.2,398.9h-3.4c-0.6,0.7-1.4,1.1-2.4,1.2c-0.1,0-0.2,0-0.3,0l-3.5,0c-0.4,0-0.7-0.3-0.7-0.7
						c0-0.4,0.3-0.7,0.7-0.7h3.8c1,0,1.9-0.8,1.9-1.9s-0.8-1.9-1.9-1.9h-4.8h0c-2.2,0-4,1.6-4.1,3.8c-0.1,1.1,0.3,2.2,1.1,3l2.5,2.8
						c0.1,0.1,0.3,0.2,0.5,0.2h3.2v-0.9c0-1.6,1.3-2.8,2.8-2.8s2.8,1.3,2.8,2.8v0.9h3.3c1.4-2,2.1-4.4,2.1-6.9v-0.4
						C-275.5,398.3-276.8,398.9-278.2,398.9z"/>
				</g>
			</g>
		</g>
	</g>
</g>
</svg>
