<svg id="Layer_1" data-name="Layer 1" xmlns="http://www.w3.org/2000/svg" width="1019.73" height="925.87" viewBox="0 0 1019.73 925.87">
  <path d="M477.87,452.27q64,64,153.6,64l4.26,89.6q-121.59,0-217.6-89.6L388.27,486.4,290.13,588.8,384,678.4v256H298.67V712.53l-55.47-51.2V755.2L64,938.67,4.27,878.93l153.6-153.6L106.67,576c-8.53-25.6,4.27-46.93,25.6-64l140.8-140.8c17.07-21.33,38.4-29.87,59.73-29.87s34.13,4.27,46.93,12.8l98.14,98.14ZM1024,507.73H938.67V362.67l-76.8-29.87,38.4,187.73L942.93,742.4l38.4,187.73h-89.6L814.93,588.8l-89.6,85.33v256H640v-320l89.6-85.33L704,396.8c-25.6,25.6-55.47,51.2-89.6,68.27a179.32,179.32,0,0,1-106.67-51.2c68.27-12.8,115.2-46.94,145.07-98.14l42.67-68.26c25.6-42.67,64-55.47,110.93-34.14L1024,307.2V507.73Zm-537.6-320a85.34,85.34,0,1,1-85.33,85.34,85.58,85.58,0,0,1,85.33-85.34ZM704,12.8a85.34,85.34,0,1,1-85.33,85.33A85.58,85.58,0,0,1,704,12.8Z" transform="translate(-4.27 -12.8)" fill="#6e2e26"/>
</svg>
