<?xml version="1.0" encoding="utf-8"?>
<!-- Generator: Adobe Illustrator 19.0.0, SVG Export Plug-In . SVG Version: 6.00 Build 0)  -->
<svg version="1.1" id="Layer_1" xmlns="http://www.w3.org/2000/svg" xmlns:xlink="http://www.w3.org/1999/xlink" x="0px" y="0px"
	 viewBox="-294 385 23 24" style="enable-background:new -294 385 23 24;" xml:space="preserve">
<style type="text/css">
	.st0{fill:#FF9C63;}
</style>
<title>D0BADC2F-74A6-40A5-8CB2-BD61E33CECA1</title>
<desc>Created with sketchtool.</desc>
<g id="Page-1">
	<g id="icon" transform="translate(-104.000000, -834.000000)">
		<g id="_x31_2-copy" transform="translate(83.000000, 818.000000)">
			<g id="Beach-Volleyball_x2F_white" transform="translate(21.000000, 16.000000)">
				<g id="Path">
					<polygon class="st0" points="-287,393.6 -282.9,393.6 -282.9,396.8 -287,396.8 					"/>
					<polygon class="st0" points="-292.2,393.6 -287.8,393.6 -287.8,396.8 -292.2,396.8 					"/>
					<polygon class="st0" points="-287,397.6 -282.9,397.6 -282.9,400.7 -287,400.7 					"/>
					<polygon class="st0" points="-293,401.1 -293,391.1 -294,391.1 -294,409 -293,409 					"/>
					<polygon class="st0" points="-292.2,397.6 -287.8,397.6 -287.8,400.7 -292.2,400.7 					"/>
					<polygon class="st0" points="-277.2,393.6 -272.8,393.6 -272.8,396.8 -277.2,396.8 					"/>
					<polygon class="st0" points="-272,391.1 -271,391.1 -271,409 -272,409 					"/>
					<polygon class="st0" points="-282.1,393.6 -278,393.6 -278,396.8 -282.1,396.8 					"/>
					<polygon class="st0" points="-277.2,397.6 -272.8,397.6 -272.8,400.7 -277.2,400.7 					"/>
					<polygon class="st0" points="-282.1,397.6 -278,397.6 -278,400.7 -282.1,400.7 					"/>
					<path class="st0" d="M-278.4,387c0,1.1-0.9,2-1.9,2s-1.9-0.9-1.9-2c0-1.1,0.9-2,1.9-2S-278.4,385.9-278.4,387z"/>
				</g>
			</g>
		</g>
	</g>
</g>
</svg>
