<?xml version="1.0" encoding="utf-8"?>
<!-- Generator: Adobe Illustrator 19.0.0, SVG Export Plug-In . SVG Version: 6.00 Build 0)  -->
<svg version="1.1" id="Layer_1" xmlns="http://www.w3.org/2000/svg" xmlns:xlink="http://www.w3.org/1999/xlink" x="0px" y="0px"
	 viewBox="-293 387 24 20" style="enable-background:new -293 387 24 20;" xml:space="preserve">
<style type="text/css">
	.st0{fill:#74C94B;}
</style>
<title>BF5347D7-A3C4-40F4-9F1E-C0D00CB49490</title>
<desc>Created with sketchtool.</desc>
<g id="Page-1">
	<g id="icon" transform="translate(-142.000000, -516.000000)">
		<g id="_x38_" transform="translate(83.000000, 498.000000)">
			<g id="football-field" transform="translate(59.000000, 18.000000)">
				
					<g id="Path" transform="translate(12.000000, 10.000000) rotate(90.000000) translate(-12.000000, -10.000000) translate(2.859375, -1.815385)">
					<polygon class="st0" points="394,293 398.3,293 398.3,295.8 394,295.8 					"/>
					<path class="st0" d="M396.1,301.4c-1.7,0-3.1,1.2-3.4,2.8h6.9C399.3,302.5,397.8,301.4,396.1,301.4z"/>
					<path class="st0" d="M391.3,304.1c0.3-2.3,2.4-4.2,4.9-4.2s4.5,1.8,4.9,4.2h4.3v-9c0-1.1-0.9-2.1-2.1-2.1h-3.5v3.5
						c0,0.4-0.3,0.7-0.7,0.7h-5.6c-0.4,0-0.7-0.3-0.7-0.7V293h-3.5c-1.2,0-2.1,0.9-2.1,2.1v9H391.3z"/>
					<path class="st0" d="M401,305.5c-0.3,2.3-2.4,4.2-4.9,4.2s-4.5-1.8-4.9-4.2H387v9c0,1.1,0.9,2.1,2.1,2.1h3.5v-3.5
						c0-0.4,0.3-0.7,0.7-0.7h5.6c0.4,0,0.7,0.3,0.7,0.7v3.5h3.5c1.2,0,2.1-0.9,2.1-2.1v-9H401z"/>
					<polygon class="st0" points="394,313.8 398.3,313.8 398.3,316.6 394,316.6 					"/>
					<path class="st0" d="M396.1,308.3c1.7,0,3.1-1.2,3.4-2.8h-6.9C393,307.1,394.4,308.3,396.1,308.3z"/>
				</g>
			</g>
		</g>
	</g>
</g>
</svg>
