<?xml version="1.0" encoding="utf-8"?>
<!-- Generator: Adobe Illustrator 19.0.0, SVG Export Plug-In . SVG Version: 6.00 Build 0)  -->
<svg version="1.1" id="Layer_1" xmlns="http://www.w3.org/2000/svg" xmlns:xlink="http://www.w3.org/1999/xlink" x="0px" y="0px"
	 viewBox="-293 389 24 16" style="enable-background:new -293 389 24 16;" xml:space="preserve">
<style type="text/css">
	.st0{fill:#9E4025;}
</style>
<title>3598D93E-65A0-4482-A419-661C6C9F6FDF</title>
<desc>Created with sketchtool.</desc>
<g id="Page-1">
	<g id="icon" transform="translate(-115.000000, -710.000000)">
		<g id="_x31_1" transform="translate(83.000000, 690.000000)">
			<g id="Horse-Racing" transform="translate(32.000000, 20.000000)">
				<g>
					<path id="Shape" class="st0" d="M-274.5,401.7c-0.8-0.4-1.6-0.9-2.4-1.3c-0.1,0.6-0.1,1.1-0.2,1.6c-0.1,0.5-0.1,1.1-0.2,1.6
						c0,0.3-0.3,0.5-0.6,0.5c-0.3,0-0.5-0.1-0.8-0.1c-0.3,0-0.5-0.1-0.8-0.1c0.2,0.3,0.4,0.6,0.6,0.9c0.1,0.1,0.1,0.2,0.1,0.3
						c-0.1,0-0.2,0-0.3,0.1c0,0,0,0,0,0c-0.4,0.1-0.6-0.1-0.7-0.4c0-0.1-0.1-0.2-0.2-0.2c-0.5-0.3-0.9-0.5-1.4-0.8
						c0,0.4-0.2,0.4-0.5,0.2c-0.2-0.1-0.5-0.3-0.4-0.6c0-0.1-0.1-0.1-0.2-0.2c-0.4-0.2-0.7-0.4-1.1-0.6c-0.2-0.1-0.3-0.2-0.3-0.3
						c0-0.2-0.1-0.2-0.3-0.3c-0.5-0.2-1-0.3-1.5-0.5c-0.4-0.1-0.4-0.4-0.2-0.6c0.3-0.4,0.6-0.9,1-1.3c-0.1-0.1-0.2-0.1-0.3-0.2
						c-0.6-0.3-1.1-0.7-1.4-1.2c-0.2-0.3-0.1-0.6-0.3-0.6l-4.3,1.9c-0.1-0.2-0.1-0.4-0.2-0.7l-0.5,0.1l-0.3-0.8l-0.5,0.2
						c-0.1-0.3-0.2-0.6-0.3-0.8c0,0,4.8-1.5,6.1-2c0.1,0,0.2-0.1,0.3-0.2c0.6-0.7,1.3-1.1,2.3-1c1.5,0.1,3,0.3,4.4,0.4
						c0,0,0.1,0,0.2,0c-0.1-0.1-0.1-0.1-0.2-0.1c-0.5-0.2-0.9-0.4-1.4-0.7c-0.7-0.4-0.9-1.1-0.4-1.8c0.2-0.3,0.5-0.4,0.8-0.6
						c0.9-0.3,1.7-0.6,2.6-0.9c0.8-0.3,1,0,1.2,0.6c0.2,0.5,0.4,1,0.6,1.6c0,0.1,0.1,0.2,0.2,0.2c0.4,0,0.7,0.1,1.1,0.1
						c0.1,0,0.3,0,0.3-0.1c0.5-0.4,1.2-1.6,2.4-1.6c0.1,0,0.2,0,0.3-0.1c0.1-0.1,0.2-0.2,0.3-0.4c0.1,0.2,0.1,0.4,0.1,0.6
						c0,0.1,0.1,0.2,0.2,0.3l2.3,2.6c0.2,0.3,0.2,0.7-0.1,1c-0.1,0.1-0.1,0.2-0.2,0.2c-0.3,0.3-0.5,0.3-0.9,0.2
						c-0.6-0.3-1.2-0.5-1.8-0.8c-0.1,0-0.1-0.1-0.2-0.1c-0.9,1.8-1.8,3.5-2.6,5.3c0.4,0.4,0.9,0.8,1.3,1.2c0.3,0.3,0.3,0.5,0,0.8
						c-0.5,0.5-0.9,1-1.4,1.5c-0.2,0.2-0.4,0.3-0.7,0.4c-0.3,0-0.6,0.1-0.9,0.1c-0.3,0-0.3-0.1-0.2-0.3c0.1-0.4,0.4-0.6,0.8-0.5
						c0.3,0,0.5-0.1,0.7-0.4C-275.1,402.4-274.8,402.1-274.5,401.7z M-278.2,403.1c0-0.1,0-0.1,0-0.2c-0.1-0.9-0.2-1.7-0.3-2.6
						c0-0.1-0.1-0.2-0.2-0.2c-0.9-0.2-1.8-0.4-2.7-0.6c-0.6-0.2-1.3,0-1.3,0.7c0.4,1.7,0.6,2.1,1.5,2.3
						C-281.2,402.5-279,403-278.2,403.1z M-277.7,392.8c-0.4,0.1-0.8,0.3-1.2,0.4c0.3,0.2,0.5,0.3,0.7,0.4c0.4,0.2,0.6,0.5,0.5,1
						c0.2,0,0.3,0,0.5,0c0.1,0,0.3,0,0.3,0c0.3-0.2,0.5-0.4,0.8-0.7c-0.3,0-0.5,0-0.6,0c-0.4,0-0.6-0.2-0.7-0.5
						C-277.6,393.2-277.6,393-277.7,392.8z"/>
					<path id="Path" class="st0" d="M-274.5,390.3c0,0.7-0.5,1.2-1.2,1.2c-0.7,0-1.2-0.5-1.2-1.2c0-0.6,0.6-1.2,1.2-1.2
						S-274.5,389.7-274.5,390.3z"/>
				</g>
			</g>
		</g>
	</g>
</g>
</svg>
