<?xml version="1.0" encoding="utf-8"?>
<!-- Generator: Adobe Illustrator 19.0.0, SVG Export Plug-In . SVG Version: 6.00 Build 0)  -->
<svg version="1.1" id="Layer_1" xmlns="http://www.w3.org/2000/svg" xmlns:xlink="http://www.w3.org/1999/xlink" x="0px" y="0px"
	 viewBox="-293 385 24 24" style="enable-background:new -293 385 24 24;" xml:space="preserve">
<style type="text/css">
	.st0{fill:#E83D1A;}
</style>
<title>EE18CD3D-D3D0-4891-95C7-26E7E3B1C0AA</title>
<desc>Created with sketchtool.</desc>
<g id="Page-1">
	<g id="icon" transform="translate(-126.000000, -130.000000)">
		<g id="_x32_" transform="translate(83.000000, 114.000000)">
			<g id="basketball_x2F_white" transform="translate(43.000000, 16.000000)">
				<g id="Path">
					<path class="st0" d="M-272.6,388.5c-2.2,1-4.3,2.1-6.2,3.4c-0.7-0.8-1.5-1.5-2.3-2.2c1.1-1.3,2-2.8,2.5-4.4l0-0.1
						C-276.2,385.8-274.2,386.9-272.6,388.5z"/>
					<path class="st0" d="M-279.7,385.1c-0.5,1.3-1.3,2.7-2.3,3.8c-1.2-1-2.5-2-3.9-2.9c1.5-0.7,3.2-1,4.9-1
						C-280.6,385-280.1,385-279.7,385.1z"/>
					<path class="st0" d="M-292.6,394c0.8-3.1,2.8-5.7,5.5-7.3c1.5,0.9,3,2,4.3,3.1c-0.1,0.1-0.1,0.1-0.2,0.2
						C-285.8,392.8-289.4,394.3-292.6,394z"/>
					<path class="st0" d="M-279.8,392.6c-4.4,3.1-8,6.9-10.9,11.5c-1.4-2-2.3-4.4-2.3-7.1c0-0.6,0-1.2,0.1-1.8c0.3,0,0.6,0.1,1,0.1
						c3.4,0,6.9-1.6,9.7-4.4c0.1-0.1,0.2-0.2,0.2-0.3C-281.2,391.3-280.5,391.9-279.8,392.6z"/>
					<path class="st0" d="M-269.1,395.9c-1.8,0-3.7,0.5-5.5,1.3c-1-1.6-2.2-3-3.4-4.4c1.9-1.3,4-2.4,6.3-3.4
						C-270.2,391.2-269.3,393.5-269.1,395.9z"/>
					<path class="st0" d="M-269,397.1c0,2.4-0.8,4.6-2,6.5c-0.9-1.9-1.8-3.7-2.9-5.3C-272.3,397.5-270.6,397.1-269,397.1L-269,397.1
						L-269,397.1z"/>
					<path class="st0" d="M-289.9,405.1c2.8-4.6,6.4-8.5,10.9-11.6c1.2,1.3,2.3,2.8,3.3,4.3c-1.1,0.7-2.2,1.5-3.2,2.5
						c-2.5,2.5-4,5.5-4.3,8.5C-285.8,408.3-288.1,407-289.9,405.1z"/>
					<path class="st0" d="M-277.9,401.1c0.9-0.9,1.9-1.7,3-2.3c1.2,1.8,2.2,3.8,3.1,5.9c-2.2,2.6-5.5,4.3-9.2,4.3
						c-0.3,0-0.6,0-0.9,0C-281.6,406.2-280.2,403.4-277.9,401.1z"/>
				</g>
			</g>
		</g>
	</g>
</g>
</svg>
