<?xml version="1.0" encoding="utf-8"?>
<!-- Generator: Adobe Illustrator 19.0.0, SVG Export Plug-In . SVG Version: 6.00 Build 0)  -->
<svg version="1.1" id="Layer_1" xmlns="http://www.w3.org/2000/svg" xmlns:xlink="http://www.w3.org/1999/xlink" x="0px" y="0px"
	 viewBox="-294 385 23 24" style="enable-background:new -294 385 23 24;" xml:space="preserve">
<style type="text/css">
	.st0{fill:#623CEA;}
</style>
<title>7ACE8EBB-06F4-4E35-8026-642E80B7C85D</title>
<desc>Created with sketchtool.</desc>
<g id="Page-1">
	<g id="icon" transform="translate(-135.000000, -450.000000)">
		<g id="_x37_" transform="translate(83.000000, 434.000000)">
			<g id="game-controller" transform="translate(52.000000, 16.000000)">
				<g id="Shape">
					<path class="st0" d="M-291.9,409c1.1,0,2.4-0.8,4-2.6c0.9-1,2.2-1.6,3.5-1.6h3.8c1.3,0,2.6,0.6,3.5,1.6c1.6,1.7,2.9,2.6,4,2.6
						c0.7,0,1.3-0.4,1.7-1.2c0.3-0.6,0.4-1.4,0.4-2.4c0-4.1-2.5-11.9-6.4-11.9c-1.2,0-1.7,0.4-2.2,0.7c-0.4,0.3-0.7,0.5-1.4,0.7
						c0.3-0.5,0.6-1.1,0.6-1.7c0-1.5-1.4-2.8-1.6-3c-0.3-0.3-1.1-1.2-1.1-2c0-0.7,0.8-1.7,1.1-1.9c0.3-0.3,0.3-0.7,0.1-1
						c-0.2-0.3-0.7-0.3-0.9-0.1c-0.2,0.1-1.6,1.5-1.6,3c0,1.5,1.4,2.9,1.6,3c0.3,0.3,1.1,1.2,1.1,1.9c0,0.6-0.6,1.4-0.9,1.8h-1
						c-0.8-0.1-1.2-0.4-1.6-0.7c-0.5-0.3-1-0.7-2.2-0.7c-3.9,0-6.4,7.8-6.4,11.9C-294,408.6-292.6,409-291.9,409L-291.9,409z
						 M-277.1,401.9c-0.4,0-0.7-0.3-0.7-0.7c0-0.4,0.3-0.7,0.7-0.7c0.4,0,0.7,0.3,0.7,0.7C-276.5,401.6-276.8,401.9-277.1,401.9z
						 M-275.8,399.1c0.4,0,0.7,0.3,0.7,0.7c0,0.4-0.3,0.7-0.7,0.7c-0.4,0-0.7-0.3-0.7-0.7C-276.5,399.4-276.2,399.1-275.8,399.1z
						 M-277.1,397.7c0.4,0,0.7,0.3,0.7,0.7s-0.3,0.7-0.7,0.7c-0.4,0-0.7-0.3-0.7-0.7S-277.5,397.7-277.1,397.7z M-278.5,399.1
						c0.4,0,0.7,0.3,0.7,0.7c0,0.4-0.3,0.7-0.7,0.7c-0.4,0-0.7-0.3-0.7-0.7C-279.2,399.4-278.9,399.1-278.5,399.1z M-283.9,399.1
						h2.7c0.4,0,0.7,0.3,0.7,0.7c0,0.4-0.3,0.7-0.7,0.7h-2.7c-0.4,0-0.7-0.3-0.7-0.7C-284.5,399.4-284.2,399.1-283.9,399.1z
						 M-289.2,399.1h0.7v-0.7c0-0.4,0.3-0.7,0.7-0.7c0.4,0,0.7,0.3,0.7,0.7v0.7h0.7c0.4,0,0.7,0.3,0.7,0.7c0,0.4-0.3,0.7-0.7,0.7
						h-0.7v0.7c0,0.4-0.3,0.7-0.7,0.7c-0.4,0-0.7-0.3-0.7-0.7v-0.7h-0.7c-0.4,0-0.7-0.3-0.7-0.7
						C-289.9,399.4-289.6,399.1-289.2,399.1z"/>
				</g>
			</g>
		</g>
	</g>
</g>
</svg>
