<?xml version="1.0" encoding="utf-8"?>
<!-- Generator: Adobe Illustrator 19.0.0, SVG Export Plug-In . SVG Version: 6.00 Build 0)  -->
<svg version="1.1" id="Layer_1" xmlns="http://www.w3.org/2000/svg" xmlns:xlink="http://www.w3.org/1999/xlink" x="0px" y="0px"
	 viewBox="-293 385 24 24" style="enable-background:new -293 385 24 24;" xml:space="preserve">
<style type="text/css">
	.st0{fill:#03B37F;}
</style>
<title>A0EC6E6A-CF1A-4358-B18A-D20C84B81CBC</title>
<desc>Created with sketchtool.</desc>
<g id="Page-1">
	<g id="Sport" transform="translate(-1194.000000, -481.000000)">
		<g id="upcoming" transform="translate(1178.000000, 411.000000)">
			<g id="name" transform="translate(0.000000, 54.000000)">
				<g id="soccer_x2F_white" transform="translate(16.000000, 16.000000)">
					<path id="Shape" class="st0" d="M-281,385c-6.6,0-12,5.4-12,12c0,6.6,5.4,12,12,12s12-5.4,12-12c0-3.2-1.2-6.2-3.5-8.5
						C-274.8,386.2-277.8,385-281,385z M-285,386.7l3.6,1.3v3.8l-4.5,3.2l-3.7-1.2l-0.1-3.9C-288.4,388.6-286.8,387.4-285,386.7z
						 M-290.3,403c-1-1.6-1.7-3.4-1.8-5.4l2.4-3.1l3.7,1.2l1.7,5.2l-2.3,3.1L-290.3,403z M-278.2,407.7c-0.9,0.2-1.9,0.4-2.8,0.4
						c-1,0-1.9-0.1-2.8-0.4l-2.2-3.2l2.3-3.1h5.5l2.3,3.1L-278.2,407.7z M-270,397.6c-0.1,2-0.7,3.8-1.8,5.4l-3.7,1.1l-2.3-3.1
						l1.7-5.2l3.7-1.2L-270,397.6z M-272.5,393.9l-3.7,1.2l-4.5-3.2V388l3.7-1.3c1.4,0.5,2.7,1.4,3.8,2.5c0.3,0.3,0.5,0.5,0.8,0.8
						L-272.5,393.9z"/>
				</g>
			</g>
		</g>
	</g>
</g>
</svg>
