<?xml version="1.0" encoding="utf-8"?>
<!-- Generator: Adobe Illustrator 19.0.0, SVG Export Plug-In . SVG Version: 6.00 Build 0)  -->
<svg version="1.1" id="Layer_1" xmlns="http://www.w3.org/2000/svg" xmlns:xlink="http://www.w3.org/1999/xlink" x="0px" y="0px"
	 viewBox="-293 388 24 17" style="enable-background:new -293 388 24 17;" xml:space="preserve">
<style type="text/css">
	.st0{fill:#FCAE4D;}
</style>
<title>71E58A8A-8A00-4E4C-B930-D3DBE16F591C</title>
<desc>Created with sketchtool.</desc>
<g id="Page-1">
	<g id="icon" transform="translate(-443.000000, -262.000000)">
		<g id="_x31_6" transform="translate(393.000000, 242.000000)">
			<g id="Snooker" transform="translate(50.000000, 20.000000)">
				<g>
					<path id="Path" class="st0" d="M-275.8,388.1c-2.1,0-4,1-5.2,2.4c-1.3-1.5-3.1-2.4-5.2-2.4c-3.8,0-6.8,3.1-6.8,6.8
						c0,3.1,2.1,5.8,5,6.5c-0.6-1-0.9-2.2-0.9-3.4c0-4.1,3.3-7.3,7.3-7.3c0.1,0,0.3,0,0.4,0c0.2,0,0.3,0,0.4,0.1
						c3.6,0.4,6.5,3.5,6.5,7.3c0,1.3-0.4,2.5-1,3.6c3.5-0.3,6.3-3.3,6.3-6.8C-269,391.2-272,388.1-275.8,388.1z"/>
					<path id="Shape" class="st0" d="M-281.6,391.3c-3.8,0-6.8,3-6.8,6.8s3,6.8,6.8,6.8s6.8-3.1,6.8-6.8S-277.9,391.3-281.6,391.3z
						 M-283.1,399.7c-1.6,0-2.9-1.3-2.9-2.9c0-1.6,1.3-2.9,2.9-2.9s2.9,1.3,2.9,2.9C-280.3,398.4-281.5,399.7-283.1,399.7z"/>
					<path id="Shape_1_" class="st0" d="M-282.8,396.6c0.3-0.2,0.4-0.4,0.4-0.6s-0.1-0.5-0.3-0.6c-0.2-0.1-0.5-0.3-0.8-0.3
						s-0.6,0.1-0.8,0.3c-0.2,0.1-0.3,0.4-0.3,0.6s0.1,0.5,0.4,0.6c-0.3,0.2-0.5,0.5-0.5,0.9c0,0.3,0.1,0.5,0.4,0.7
						c0.3,0.2,0.5,0.3,0.9,0.3s0.6-0.1,0.9-0.3c0.3-0.2,0.4-0.5,0.4-0.7C-282.3,397.1-282.4,396.9-282.8,396.6z M-283.9,395.7
						c0.1-0.1,0.3-0.2,0.4-0.2s0.3,0.1,0.4,0.2c0.1,0.1,0.2,0.2,0.2,0.3c0,0.2-0.1,0.3-0.2,0.4c-0.1,0.1-0.3,0.1-0.4,0.1
						s-0.3,0-0.4-0.1s-0.2-0.2-0.2-0.4C-284.1,395.9-284,395.8-283.9,395.7z M-283,397.9c-0.2,0.1-0.3,0.1-0.5,0.1s-0.3,0-0.5-0.1
						c-0.1-0.1-0.2-0.3-0.2-0.4s0-0.3,0.2-0.4c0.2-0.1,0.3-0.1,0.5-0.1c0.2,0,0.4,0,0.5,0.1c0.1,0.1,0.2,0.3,0.2,0.4
						C-282.8,397.6-282.9,397.8-283,397.9z"/>
				</g>
			</g>
		</g>
	</g>
</g>
</svg>
