<?xml version="1.0" encoding="utf-8"?>
<!-- Generator: Adobe Illustrator 19.0.0, SVG Export Plug-In . SVG Version: 6.00 Build 0)  -->
<svg version="1.1" id="Layer_1" xmlns="http://www.w3.org/2000/svg" xmlns:xlink="http://www.w3.org/1999/xlink" x="0px" y="0px"
	 viewBox="-293 385 24 24" style="enable-background:new -293 385 24 24;" xml:space="preserve">
<style type="text/css">
	.st0{fill:#D3393D;}
</style>
<title>E9C53DEE-CFA7-4BA5-86AD-4B75D13BD147</title>
<desc>Created with sketchtool.</desc>
<g id="Page-1">
	<g id="icon" transform="translate(-96.000000, -66.000000)">
		<g id="_x31_" transform="translate(83.000000, 50.000000)">
			<g id="Helmet" transform="translate(13.000000, 16.000000)">
				<g>
					<path id="Path" class="st0" d="M-278.1,399.4h1.7c0.3-1,1.2-1.7,2.2-1.7h3.8c0.4,0,0.7-0.3,0.7-0.7v-0.4c0-0.2,0-0.4,0-0.5
						h-4.5C-276.2,396.1-277.9,397.5-278.1,399.4L-278.1,399.4z"/>
					<path id="Path_1_" class="st0" d="M-282.4,404.5V400c0-4.5,3.6-8.1,8.1-8.1h3.5c-1.8-4.1-5.9-6.9-10.6-6.9
						c-6.4,0-11.6,5.2-11.6,11.6v3.4c0,1.2,1,2.2,2.2,2.2h0c1.7,0,3.3,0.8,4.3,2.1l2.5,3.2c0.7,0.9,1.8,1.5,3,1.5
						c1.7,0,3.2-1,3.9-2.4h-3.2C-281.5,406.6-282.4,405.7-282.4,404.5L-282.4,404.5z"/>
					<path id="Shape" class="st0" d="M-269.7,400.8h-9.9V400c0-2.9,2.4-5.3,5.3-5.3h4.6c0.4,0,0.7-0.3,0.7-0.7
						c0-0.4-0.3-0.7-0.7-0.7h-4.6c-3.7,0-6.7,3-6.7,6.7v4.5c0,0.4,0.3,0.7,0.7,0.7h5.4v1.6c0,1.2,1,2.2,2.2,2.2h3
						c0.4,0,0.7-0.3,0.7-0.7v-6.8C-269,401.1-269.3,400.8-269.7,400.8L-269.7,400.8z M-274.9,403.8h-4.7v-1.6h4.7V403.8z
						 M-270.4,407.6h-2.3c-0.4,0-0.8-0.4-0.8-0.8v-1.6h3.1V407.6z M-270.4,403.8h-3.1v-1.6h3.1V403.8z"/>
				</g>
			</g>
		</g>
	</g>
</g>
</svg>
