<?xml version="1.0" encoding="utf-8"?>
<!-- Generator: Adobe Illustrator 19.0.0, SVG Export Plug-In . SVG Version: 6.00 Build 0)  -->
<svg version="1.1" id="Layer_1" xmlns="http://www.w3.org/2000/svg" xmlns:xlink="http://www.w3.org/1999/xlink" x="0px" y="0px"
	 viewBox="-293 385 24 24" style="enable-background:new -293 385 24 24;" xml:space="preserve">
<style type="text/css">
	.st0{fill:#B21347;}
</style>
<title>ACCB04B0-7499-4EFE-B2EB-0F87511AEF5E</title>
<desc>Created with sketchtool.</desc>
<g id="Page-1">
	<g id="icon" transform="translate(-144.000000, -386.000000)">
		<g id="_x36_" transform="translate(83.000000, 370.000000)">
			<g id="darts" transform="translate(61.000000, 16.000000)">
				<path id="Combined-Shape" class="st0" d="M-281.3,385c3.2-0.1,6.4,1.1,8.7,3.4c2.3,2.3,3.6,5.4,3.6,8.6c0,4.3-2.3,8.3-6,10.4
					c-3.7,2.1-8.3,2.1-12,0c-3.7-2.1-6-6.1-6-10.4C-293,390.5-287.8,385.2-281.3,385z M-281,386.2l-0.3,0c-5.9,0.2-10.5,5-10.5,10.8
					c0,6,4.9,10.8,10.8,10.8c6,0,10.8-4.8,10.8-10.8c0-2.9-1.2-5.7-3.3-7.8c-2.1-2-4.9-3.1-7.9-3.1L-281,386.2z M-284,402.6
					c0.8,0.4,1.8,0.7,2.7,0.7l0,0v3.7c-1.6,0-3.2-0.5-4.6-1.2l0,0L-284,402.6z M-278,402.6l1.8,3.2c-1.4,0.8-3,1.2-4.6,1.2l0,0v-3.7
					C-279.8,403.3-278.8,403.1-278,402.6L-278,402.6z M-286.4,400.4c0.5,0.8,1.2,1.5,2,2l-1.8,3.2c-1.4-0.8-2.5-2-3.4-3.4
					L-286.4,400.4z M-275.6,400.4l3.2,1.8c-0.8,1.4-2,2.5-3.4,3.4l0,0l-1.8-3.2C-276.8,401.9-276.1,401.2-275.6,400.4L-275.6,400.4z
					 M-281.2,397.9v5c-0.9,0-1.7-0.3-2.5-0.7L-281.2,397.9z M-280.7,397.9l2.5,4.3c-0.8,0.4-1.6,0.6-2.5,0.7V397.9z M-281.6,397.7
					l-2.5,4.3c-0.7-0.5-1.4-1.1-1.8-1.8L-281.6,397.7z M-280.3,397.7l4.3,2.5c-0.5,0.7-1.1,1.4-1.8,1.8L-280.3,397.7z M-287.3,397.3
					c0,1,0.3,1.9,0.7,2.7l-3.2,1.8c-0.8-1.4-1.2-3-1.2-4.6H-287.3z M-271,397.3c0,1.6-0.5,3.2-1.2,4.6l-3.2-1.8
					c0.4-0.8,0.7-1.8,0.7-2.7H-271z M-281.8,397.3l-4.3,2.5c-0.4-0.8-0.6-1.6-0.7-2.5l0,0H-281.8z M-275.1,397.3
					c0,0.9-0.3,1.7-0.7,2.5l0,0l-4.3-2.5H-275.1z M-286.2,394.3l4.3,2.5h-5C-286.8,395.9-286.6,395.1-286.2,394.3L-286.2,394.3z
					 M-289.8,392.2l3.2,1.8c-0.4,0.8-0.7,1.8-0.7,2.7h-3.7C-291,395.2-290.5,393.6-289.8,392.2z M-275.8,394.3
					c0.4,0.8,0.6,1.6,0.7,2.5l0,0h-5L-275.8,394.3z M-272.2,392.2c0.8,1.4,1.2,3,1.2,4.6l0,0h-3.7c0-1-0.3-1.9-0.7-2.7l0,0
					L-272.2,392.2z M-277.8,392c0.7,0.5,1.4,1.1,1.8,1.8l0,0l-4.3,2.5L-277.8,392z M-284.1,392l2.5,4.3l-4.3-2.5
					C-285.5,393.1-284.9,392.5-284.1,392L-284.1,392z M-280.7,391.1c0.9,0,1.7,0.3,2.5,0.7l0,0l-2.5,4.3V391.1z M-281.2,391.1v5
					l-2.5-4.3C-282.9,391.4-282.1,391.2-281.2,391.1L-281.2,391.1z M-275.8,388.5c1.4,0.8,2.5,2,3.4,3.4l-3.2,1.8
					c-0.5-0.8-1.2-1.5-2-2L-275.8,388.5z M-286.2,388.5l1.8,3.2c-0.8,0.5-1.5,1.2-2,2l0,0l-3.2-1.8
					C-288.7,390.4-287.6,389.3-286.2,388.5L-286.2,388.5z M-280.7,387c1.6,0,3.2,0.5,4.6,1.2l0,0l-1.8,3.2c-0.8-0.4-1.8-0.7-2.7-0.7
					l0,0V387z M-281.2,387v3.7c-1,0-1.9,0.3-2.7,0.7l-1.8-3.2C-284.4,387.5-282.8,387-281.2,387z"/>
			</g>
		</g>
	</g>
</g>
</svg>
